<svg width="11" height="19" viewBox="0 0 11 19" fill="none" xmlns="http://www.w3.org/2000/svg">
<path fill-rule="evenodd" clip-rule="evenodd" d="M5.52001 9.84C6.41058 9.91797 7.30391 9.72511 8.083 9.28668C8.86209 8.84824 9.49057 8.18469 9.8861 7.38297C10.2816 6.58124 10.4257 5.67874 10.2995 4.7937C10.1734 3.90867 9.78287 3.08239 9.17907 2.42313C8.57526 1.76387 7.78633 1.30237 6.91576 1.09912C6.04519 0.895859 5.13359 0.960315 4.30028 1.28405C3.46697 1.60778 2.75087 2.17568 2.24584 2.91334C1.74081 3.651 1.47034 4.52402 1.46996 5.418C1.42434 6.54049 1.8246 7.63546 2.58336 8.46392C3.34213 9.29237 4.39784 9.78705 5.52001 9.84ZM2.46996 5H8.56993C8.57994 5.14 8.60997 5.274 8.60997 5.415C8.64433 5.84169 8.59001 6.27087 8.45031 6.67549C8.31061 7.08012 8.08862 7.45143 7.79833 7.76603C7.50804 8.08063 7.15565 8.3317 6.76354 8.50342C6.37143 8.67514 5.94807 8.7638 5.52001 8.7638C5.09194 8.7638 4.66847 8.67514 4.27636 8.50342C3.88424 8.3317 3.53198 8.08063 3.24169 7.76603C2.9514 7.45143 2.72941 7.08012 2.58971 6.67549C2.45001 6.27087 2.39569 5.84169 2.43004 5.415C2.43004 5.277 2.45996 5.143 2.46996 5ZM7.32994 9.77301C7.24858 10.2001 7.02086 10.5854 6.6859 10.8626C6.35094 11.1398 5.92975 11.2914 5.49498 11.2914C5.06021 11.2914 4.63903 11.1398 4.30407 10.8626C3.9691 10.5854 3.74138 10.2001 3.66002 9.77301C2.57233 10.1928 1.63886 10.935 0.98473 11.9001C0.330599 12.8652 -0.0129923 14.0072 -1.15135e-05 15.173V18.367H10.99V15.18C11.0038 14.0135 10.6606 12.8707 10.0065 11.9047C9.35227 10.9388 8.41829 10.1961 7.32994 9.776V9.77301Z" fill="#222222"/>
</svg>
