<svg width="18" height="18" viewBox="0 0 18 18" fill="none" xmlns="http://www.w3.org/2000/svg">
<path fill-rule="evenodd" clip-rule="evenodd" d="M2.03003 4.19395H16.75L17.88 17.373H0.890015L2.03003 4.19395ZM6.56006 4.19395V5.99396C6.56006 6.98596 6.20004 7.79395 5.42004 7.79395C4.64004 7.79395 4.29004 6.99396 4.29004 5.99396V4.19395H6.56006ZM14.48 4.19395V5.99396C14.48 6.98596 14.13 7.79395 13.35 7.79395C12.57 7.79395 12.22 6.99396 12.22 5.99396V4.19395H14.48ZM4.85999 5.39395C4.85999 2.41995 6.53001 0.00195312 9.39001 0.00195312C12.23 0.00195312 13.91 2.96095 13.91 5.39395C13.91 6.56295 12.78 6.56295 12.78 5.39395C12.78 3.57195 11.64 1.19995 9.39001 1.19995C7.11001 1.19995 5.98999 3.56695 5.98999 5.39395C5.98999 6.57995 4.85999 6.59995 4.85999 5.39195V5.39395Z" fill="#222222"/>
</svg>
