<svg width="16" height="15" viewBox="0 0 16 15" fill="none" xmlns="http://www.w3.org/2000/svg">
<path fill-rule="evenodd" clip-rule="evenodd" d="M13.79 3.61013C13.7894 3.73029 13.765 3.84897 13.7184 3.95973C13.6718 4.0705 13.6039 4.17113 13.5184 4.25563C13.433 4.34013 13.3318 4.40679 13.2206 4.45217C13.1093 4.49754 12.9902 4.5207 12.87 4.52004H11.99C11.7463 4.52165 11.5118 4.4268 11.3376 4.25637C11.1635 4.08593 11.0637 3.85379 11.0601 3.61013V2.74001C11.0611 2.61911 11.0859 2.49969 11.1333 2.38845C11.1807 2.2772 11.2495 2.17637 11.3359 2.09181C11.4224 2.00726 11.5246 1.94069 11.6368 1.89577C11.7491 1.85085 11.8691 1.82851 11.99 1.8301H12.87C12.9904 1.82864 13.1098 1.85092 13.2214 1.89601C13.3331 1.94111 13.4347 2.00813 13.5203 2.09279C13.6059 2.17745 13.6738 2.27805 13.7201 2.38918C13.7664 2.5003 13.7902 2.61962 13.79 2.74001V3.61013ZM13.79 12.02C13.7769 12.2702 13.6676 12.5056 13.485 12.677C13.3024 12.8485 13.0605 12.9426 12.8101 12.94H3.56995C3.31512 12.944 3.06828 12.8514 2.87903 12.6807C2.68978 12.51 2.57227 12.2739 2.55005 12.02V7.45998C2.57227 7.20609 2.68978 6.97003 2.87903 6.79933C3.06828 6.62864 3.31512 6.53605 3.56995 6.54006H4.08997C4.12362 6.53789 4.15738 6.54128 4.18994 6.55007C4.27847 6.55978 4.36092 6.59996 4.42297 6.66384C4.48503 6.72771 4.52289 6.81115 4.53003 6.89992C4.5312 6.93355 4.52782 6.96728 4.52002 7.00002C4.52002 7.02002 4.56995 7.04008 4.56995 7.06008C4.56687 7.19372 4.57358 7.32731 4.58997 7.45998C4.58617 8.4171 4.95992 9.33721 5.63013 10.0205C6.30034 10.7038 7.21303 11.0954 8.17004 11.1101H8.18994C9.16305 11.1146 10.0982 10.7327 10.79 10.0484C11.4819 9.36402 11.8739 8.43308 11.88 7.45998C11.88 7.31998 11.87 7.19008 11.86 7.06008C11.8518 7.04118 11.8484 7.02053 11.85 7.00002V6.89992C11.855 6.81208 11.8909 6.72883 11.9513 6.66481C12.0117 6.6008 12.0927 6.56027 12.1801 6.55007C12.2127 6.5418 12.2464 6.53842 12.28 6.54006H12.8101C13.0605 6.53739 13.3024 6.63155 13.485 6.803C13.6676 6.97444 13.7769 7.20983 13.79 7.45998V12.02ZM6.33997 7.45998C6.33997 6.97065 6.53437 6.5013 6.88037 6.15529C7.22638 5.80929 7.69573 5.61501 8.18506 5.61501C8.67438 5.61501 9.14362 5.80929 9.48962 6.15529C9.83563 6.5013 10.03 6.97065 10.03 7.45998C10.03 7.9493 9.83563 8.41866 9.48962 8.76467C9.14362 9.11067 8.67438 9.30495 8.18506 9.30495C7.69573 9.30495 7.22638 9.11067 6.88037 8.76467C6.53437 8.41866 6.33997 7.9493 6.33997 7.45998ZM13.65 0.13991H2.68994C2.2021 0.137781 1.73343 0.329302 1.3866 0.672381C1.03977 1.01546 0.843139 1.48215 0.839966 1.96999V12.7901C0.843139 13.2779 1.03977 13.7446 1.3866 14.0877C1.73343 14.4307 2.2021 14.6223 2.68994 14.6201H13.65C13.8911 14.6211 14.1299 14.5742 14.3529 14.4827C14.5759 14.3912 14.7787 14.2567 14.9496 14.0867C15.1205 13.9167 15.2563 13.7147 15.349 13.4922C15.4417 13.2697 15.4896 13.0311 15.49 12.7901V1.96999C15.4896 1.72894 15.4417 1.49034 15.349 1.26784C15.2563 1.04534 15.1205 0.843341 14.9496 0.673357C14.7787 0.503374 14.5759 0.368878 14.3529 0.277361C14.1299 0.185844 13.8911 0.138989 13.65 0.13991Z" fill="#606060"/>
</svg>
