<svg width="16" height="13" viewBox="0 0 16 13" fill="none" xmlns="http://www.w3.org/2000/svg">
<path fill-rule="evenodd" clip-rule="evenodd" d="M14.67 0.889897C14.0839 1.24601 13.4414 1.49964 12.77 1.6399C12.4913 1.33369 12.1515 1.08942 11.7726 0.922368C11.3937 0.755313 10.984 0.669198 10.5699 0.669926C9.76517 0.679684 8.9972 1.0086 8.43469 1.58423C7.87219 2.15987 7.56114 2.9352 7.56995 3.73999C7.56747 3.9785 7.59101 4.21653 7.64001 4.44996C6.43895 4.38269 5.26592 4.06077 4.19873 3.50562C3.13154 2.95047 2.19451 2.17483 1.44995 1.22999C1.06363 1.90743 0.944953 2.70496 1.11707 3.46558C1.28918 4.22621 1.73967 4.89496 2.38 5.34009C1.9022 5.31954 1.43611 5.18574 1.02002 4.94996V4.99C1.01447 5.69342 1.25092 6.37742 1.6897 6.92725C2.12847 7.47708 2.74293 7.85935 3.43005 8.01001C3.1729 8.08222 2.90711 8.11933 2.64001 8.12012C2.44842 8.12048 2.25727 8.10031 2.06995 8.06006C2.25803 8.66445 2.62973 9.19512 3.1333 9.57862C3.63687 9.96212 4.24737 10.1793 4.88 10.2C3.82298 11.0514 2.5073 11.517 1.15002 11.52C0.90922 11.5183 0.668785 11.5016 0.430054 11.47C1.79605 12.3777 3.39993 12.8615 5.04004 12.8601C6.17843 12.8525 7.30395 12.6191 8.35156 12.1736C9.39918 11.7281 10.348 11.0791 11.1432 10.2644C11.9383 9.44972 12.564 8.48537 12.984 7.42725C13.404 6.36914 13.61 5.23835 13.59 4.1001L13.58 3.69996C14.1734 3.26662 14.6819 2.72777 15.08 2.11011C14.531 2.35713 13.9477 2.51897 13.35 2.59009C13.9824 2.20322 14.4519 1.59849 14.67 0.889897Z" fill="#606060"/>
</svg>
