<svg width="27" height="13" viewBox="0 0 27 13" fill="none" xmlns="http://www.w3.org/2000/svg">
<path fill-rule="evenodd" clip-rule="evenodd" d="M7.15802 0.23999C7.08253 0.163889 6.99268 0.103476 6.89374 0.0622559C6.79479 0.0210353 6.68867 -0.00012207 6.58148 -0.00012207C6.47429 -0.00012207 6.36817 0.0210353 6.26923 0.0622559C6.17028 0.103476 6.08049 0.163889 6.005 0.23999L0.237 5.93005L0.0620117 6.18994L0.00201416 6.48999V6.5V6.51001L0.0640259 6.81006L0.241028 7.06995L6.00598 12.76C6.08162 12.836 6.17155 12.8963 6.27057 12.9375C6.36959 12.9787 6.47577 12.9999 6.58301 12.9999C6.69024 12.9999 6.79643 12.9787 6.89545 12.9375C6.99447 12.8963 7.08433 12.836 7.15997 12.76C7.23556 12.6856 7.29564 12.5969 7.33661 12.499C7.37758 12.4012 7.39868 12.296 7.39868 12.1899C7.39868 12.0839 7.37758 11.9788 7.33661 11.881C7.29564 11.7831 7.23556 11.6944 7.15997 11.62L2.78601 7.31006H26.186C26.2923 7.31006 26.3977 7.289 26.496 7.24829C26.5942 7.20758 26.6835 7.14797 26.7587 7.07275C26.8339 6.99754 26.8936 6.90821 26.9343 6.80994C26.975 6.71166 26.996 6.60637 26.996 6.5C26.996 6.39363 26.975 6.28834 26.9343 6.19006C26.8936 6.09179 26.8339 6.00246 26.7587 5.92725C26.6835 5.85203 26.5942 5.79242 26.496 5.75171C26.3977 5.711 26.2923 5.68994 26.186 5.68994H2.78601L7.15997 1.38C7.23543 1.30543 7.29532 1.21658 7.33612 1.11865C7.37692 1.02072 7.39783 0.915659 7.39764 0.80957C7.39746 0.703482 7.37617 0.598517 7.33502 0.500732C7.29388 0.402948 7.23374 0.314297 7.15802 0.23999Z" fill="white"/>
</svg>
